<svg xmlns="http://www.w3.org/2000/svg" width="1200" height="630" viewBox="0 0 1200 630">
  <defs>
    <linearGradient id="bg" x1="0" y1="0" x2="1" y2="1">
      <stop offset="0%" stop-color="#09090b"/>
      <stop offset="100%" stop-color="#18181b"/>
    </linearGradient>
    <radialGradient id="glow" cx="50%" cy="40%" r="55%">
      <stop offset="0%" stop-color="#ef4444" stop-opacity="0.12"/>
      <stop offset="100%" stop-color="#09090b" stop-opacity="0"/>
    </radialGradient>
  </defs>

  <!-- Background -->
  <rect width="1200" height="630" fill="url(#bg)"/>
  <rect width="1200" height="630" fill="url(#glow)"/>

  <!-- Subtle grid -->
  <g opacity="0.04" stroke="#fff" stroke-width="1">
    <line x1="0" y1="64" x2="1200" y2="64"/>
    <line x1="0" y1="128" x2="1200" y2="128"/>
    <line x1="0" y1="192" x2="1200" y2="192"/>
    <line x1="0" y1="256" x2="1200" y2="256"/>
    <line x1="0" y1="320" x2="1200" y2="320"/>
    <line x1="0" y1="384" x2="1200" y2="384"/>
    <line x1="0" y1="448" x2="1200" y2="448"/>
    <line x1="0" y1="512" x2="1200" y2="512"/>
    <line x1="0" y1="576" x2="1200" y2="576"/>
    <line x1="64" y1="0" x2="64" y2="630"/>
    <line x1="128" y1="0" x2="128" y2="630"/>
    <line x1="192" y1="0" x2="192" y2="630"/>
    <line x1="256" y1="0" x2="256" y2="630"/>
    <line x1="320" y1="0" x2="320" y2="630"/>
    <line x1="384" y1="0" x2="384" y2="630"/>
    <line x1="448" y1="0" x2="448" y2="630"/>
    <line x1="512" y1="0" x2="512" y2="630"/>
    <line x1="576" y1="0" x2="576" y2="630"/>
    <line x1="640" y1="0" x2="640" y2="630"/>
    <line x1="704" y1="0" x2="704" y2="630"/>
    <line x1="768" y1="0" x2="768" y2="630"/>
    <line x1="832" y1="0" x2="832" y2="630"/>
    <line x1="896" y1="0" x2="896" y2="630"/>
    <line x1="960" y1="0" x2="960" y2="630"/>
    <line x1="1024" y1="0" x2="1024" y2="630"/>
    <line x1="1088" y1="0" x2="1088" y2="630"/>
    <line x1="1152" y1="0" x2="1152" y2="630"/>
  </g>

  <!-- Top accent line -->
  <rect x="80" y="80" width="80" height="4" rx="2" fill="#ef4444"/>

  <!-- Logo text -->
  <text x="80" y="130" font-family="system-ui,-apple-system,sans-serif" font-size="22" font-weight="600" fill="#a1a1aa">Vstorm OSS</text>

  <!-- Title -->
  <text x="80" y="230" font-family="system-ui,-apple-system,sans-serif" font-size="56" font-weight="800" fill="#fafafa">Open Source</text>
  <text x="80" y="300" font-family="system-ui,-apple-system,sans-serif" font-size="56" font-weight="800" fill="#ef4444">AI Agent Tools</text>

  <!-- Subtitle -->
  <text x="80" y="365" font-family="system-ui,-apple-system,sans-serif" font-size="22" fill="#a1a1aa">Frameworks &#183; Templates &#183; Guides &#183; Comparisons</text>

  <!-- Tech badges -->
  <g transform="translate(80, 420)">
    <rect x="0" y="0" width="130" height="38" rx="19" fill="#27272a" stroke="#3f3f46" stroke-width="1"/>
    <text x="65" y="25" font-family="system-ui,sans-serif" font-size="14" font-weight="500" text-anchor="middle" fill="#fafafa">Pydantic AI</text>

    <rect x="145" y="0" width="160" height="38" rx="19" fill="#27272a" stroke="#3f3f46" stroke-width="1"/>
    <text x="225" y="25" font-family="system-ui,sans-serif" font-size="14" font-weight="500" text-anchor="middle" fill="#fafafa">DeepAgents</text>

    <rect x="320" y="0" width="130" height="38" rx="19" fill="#27272a" stroke="#3f3f46" stroke-width="1"/>
    <text x="385" y="25" font-family="system-ui,sans-serif" font-size="14" font-weight="500" text-anchor="middle" fill="#fafafa">LangChain</text>

    <rect x="465" y="0" width="100" height="38" rx="19" fill="#27272a" stroke="#3f3f46" stroke-width="1"/>
    <text x="515" y="25" font-family="system-ui,sans-serif" font-size="14" font-weight="500" text-anchor="middle" fill="#fafafa">FastAPI</text>

    <rect x="580" y="0" width="100" height="38" rx="19" fill="#27272a" stroke="#3f3f46" stroke-width="1"/>
    <text x="630" y="25" font-family="system-ui,sans-serif" font-size="14" font-weight="500" text-anchor="middle" fill="#fafafa">Next.js</text>
  </g>

  <!-- Bottom bar -->
  <rect x="0" y="540" width="1200" height="90" fill="#09090b" opacity="0.6"/>
  <text x="80" y="580" font-family="system-ui,-apple-system,sans-serif" font-size="16" fill="#52525b">oss.vstorm.co</text>

  <!-- GitHub star callout -->
  <g transform="translate(1000, 560)">
    <rect x="0" y="0" width="120" height="32" rx="16" fill="#ef4444" opacity="0.15"/>
    <text x="60" y="21" font-family="system-ui,sans-serif" font-size="13" font-weight="600" text-anchor="middle" fill="#ef4444">&#9733; Star on GitHub</text>
  </g>
</svg>
